<mxfile host="app.diagrams.net" modified="2020-12-23T02:33:13.759Z" agent="5.0 (X11)" etag="GPrvLZrqsy5hSu4QMMOC" compressed="false" version="13.6.6" type="device">
  <diagram id="tvdHMeFh68qVYVZgIlrQ" name="Page-1">
    <mxGraphModel dx="890" dy="555" grid="1" gridSize="10" guides="1" tooltips="1" connect="1" arrows="1" fold="1" page="1" pageScale="1" pageWidth="1100" pageHeight="850" math="0" shadow="0">
      <root>
        <mxCell id="0" />
        <mxCell id="1" parent="0" />
        <mxCell id="-y82QBAuLwHXEhs3pHbw-3" value="&lt;div&gt;occurs(Action, Timestep)&lt;/div&gt;&lt;div&gt;-occurs(Action, Timestep)&lt;/div&gt;" style="rounded=0;whiteSpace=wrap;html=1;" vertex="1" parent="1">
          <mxGeometry x="280" y="240" width="160" height="40" as="geometry" />
        </mxCell>
        <mxCell id="-y82QBAuLwHXEhs3pHbw-4" value="&lt;div&gt;holds(Fluent, Timestep)&lt;/div&gt;&lt;div&gt;-holds(Fluent, Timestep)&lt;/div&gt;" style="rounded=0;whiteSpace=wrap;html=1;" vertex="1" parent="1">
          <mxGeometry x="80" y="240" width="160" height="40" as="geometry" />
        </mxCell>
        <mxCell id="-y82QBAuLwHXEhs3pHbw-5" value="&lt;div&gt;obs(Fluent, Timestep)&lt;/div&gt;&lt;div&gt;-obs(Fluent, Timestep)&lt;/div&gt;" style="rounded=0;whiteSpace=wrap;html=1;" vertex="1" parent="1">
          <mxGeometry x="80" y="320" width="160" height="40" as="geometry" />
        </mxCell>
        <mxCell id="-y82QBAuLwHXEhs3pHbw-6" value="hpd(Action, Timestep)" style="rounded=0;whiteSpace=wrap;html=1;" vertex="1" parent="1">
          <mxGeometry x="280" y="320" width="160" height="40" as="geometry" />
        </mxCell>
        <mxCell id="-y82QBAuLwHXEhs3pHbw-8" value="" style="endArrow=block;html=1;endFill=0;" edge="1" parent="1" source="-y82QBAuLwHXEhs3pHbw-5" target="-y82QBAuLwHXEhs3pHbw-4">
          <mxGeometry width="50" height="50" relative="1" as="geometry">
            <mxPoint x="530" y="350" as="sourcePoint" />
            <mxPoint x="580" y="300" as="targetPoint" />
          </mxGeometry>
        </mxCell>
        <mxCell id="-y82QBAuLwHXEhs3pHbw-9" value="" style="endArrow=block;html=1;endFill=0;" edge="1" parent="1" source="-y82QBAuLwHXEhs3pHbw-6" target="-y82QBAuLwHXEhs3pHbw-3">
          <mxGeometry width="50" height="50" relative="1" as="geometry">
            <mxPoint x="170" y="330" as="sourcePoint" />
            <mxPoint x="170" y="290" as="targetPoint" />
          </mxGeometry>
        </mxCell>
        <mxCell id="-y82QBAuLwHXEhs3pHbw-10" value="attempt(Action, Timestep)" style="rounded=0;whiteSpace=wrap;html=1;" vertex="1" parent="1">
          <mxGeometry x="280" y="400" width="160" height="40" as="geometry" />
        </mxCell>
        <mxCell id="-y82QBAuLwHXEhs3pHbw-11" value="" style="endArrow=block;html=1;endFill=0;dashed=1;" edge="1" parent="1" source="-y82QBAuLwHXEhs3pHbw-10" target="-y82QBAuLwHXEhs3pHbw-6">
          <mxGeometry width="50" height="50" relative="1" as="geometry">
            <mxPoint x="370" y="330" as="sourcePoint" />
            <mxPoint x="370" y="290" as="targetPoint" />
          </mxGeometry>
        </mxCell>
        <mxCell id="-y82QBAuLwHXEhs3pHbw-15" style="rounded=0;orthogonalLoop=1;jettySize=auto;html=1;endArrow=block;endFill=1;" edge="1" parent="1" source="-y82QBAuLwHXEhs3pHbw-14" target="-y82QBAuLwHXEhs3pHbw-12">
          <mxGeometry relative="1" as="geometry" />
        </mxCell>
        <mxCell id="-y82QBAuLwHXEhs3pHbw-12" value="&lt;div&gt;permitted(Action)&lt;/div&gt;&lt;div&gt;-permitted(Action)&lt;/div&gt;" style="rounded=0;whiteSpace=wrap;html=1;" vertex="1" parent="1">
          <mxGeometry x="480" y="240" width="160" height="40" as="geometry" />
        </mxCell>
        <mxCell id="-y82QBAuLwHXEhs3pHbw-13" value="&lt;div&gt;obl(Action)&lt;/div&gt;&lt;div&gt;-obl(Action)&lt;/div&gt;&lt;div&gt;obl(-Action)&lt;/div&gt;&lt;div&gt;-obl(-Action)&lt;/div&gt;" style="rounded=0;whiteSpace=wrap;html=1;" vertex="1" parent="1">
          <mxGeometry x="680" y="240" width="160" height="80" as="geometry" />
        </mxCell>
        <mxCell id="-y82QBAuLwHXEhs3pHbw-14" value="prefer(d&lt;sub&gt;1&lt;/sub&gt;, d&lt;sub&gt;2&lt;/sub&gt;)" style="rounded=0;whiteSpace=wrap;html=1;" vertex="1" parent="1">
          <mxGeometry x="580" y="160" width="160" height="40" as="geometry" />
        </mxCell>
        <mxCell id="-y82QBAuLwHXEhs3pHbw-19" style="rounded=0;orthogonalLoop=1;jettySize=auto;html=1;endArrow=block;endFill=1;" edge="1" parent="1" source="-y82QBAuLwHXEhs3pHbw-14" target="-y82QBAuLwHXEhs3pHbw-13">
          <mxGeometry relative="1" as="geometry">
            <mxPoint x="595" y="250" as="sourcePoint" />
            <mxPoint x="645" y="210" as="targetPoint" />
          </mxGeometry>
        </mxCell>
        <mxCell id="-y82QBAuLwHXEhs3pHbw-20" value="" style="rounded=0;whiteSpace=wrap;html=1;fillColor=none;" vertex="1" parent="1">
          <mxGeometry x="60" y="140" width="800" height="320" as="geometry" />
        </mxCell>
        <mxCell id="-y82QBAuLwHXEhs3pHbw-21" value="" style="endArrow=none;dashed=1;html=1;entryX=0.5;entryY=0;entryDx=0;entryDy=0;exitX=0.5;exitY=1;exitDx=0;exitDy=0;" edge="1" parent="1" source="-y82QBAuLwHXEhs3pHbw-20" target="-y82QBAuLwHXEhs3pHbw-20">
          <mxGeometry width="50" height="50" relative="1" as="geometry">
            <mxPoint x="450" y="330" as="sourcePoint" />
            <mxPoint x="500" y="280" as="targetPoint" />
          </mxGeometry>
        </mxCell>
        <mxCell id="-y82QBAuLwHXEhs3pHbw-22" value="AIA Architecture" style="text;html=1;strokeColor=none;fillColor=none;align=center;verticalAlign=middle;whiteSpace=wrap;rounded=0;" vertex="1" parent="1">
          <mxGeometry x="70" y="150" width="100" height="20" as="geometry" />
        </mxCell>
        <mxCell id="-y82QBAuLwHXEhs3pHbw-23" value="Language AOPL" style="text;html=1;strokeColor=none;fillColor=none;align=center;verticalAlign=middle;whiteSpace=wrap;rounded=0;" vertex="1" parent="1">
          <mxGeometry x="470" y="150" width="100" height="20" as="geometry" />
        </mxCell>
      </root>
    </mxGraphModel>
  </diagram>
</mxfile>
